<?xml version="1.0" encoding="UTF-8"?>
<svg id="_图层_1" data-name="图层_1" xmlns="http://www.w3.org/2000/svg" version="1.1" viewBox="0 0 32 32">
  <!-- Generator: Adobe Illustrator 29.0.0, SVG Export Plug-In . SVG Version: 2.1.0 Build 186)  -->
  <defs>
    <style>
      .st0 {
        fill: #fff;
      }

      .st1 {
        fill: #a0a0a0;
      }

      .st2 {
        fill: #787878;
      }
    </style>
  </defs>
  <g>
    <path class="st1" d="M5,26.5c-.8,0-1.5-.7-1.5-1.5v-14c0-.8.7-1.5,1.5-1.5h9.8c1,0,1.8-.5,2.2-1.4l.9-1.8c.3-.5.8-.8,1.3-.8h7.8c.8,0,1.5.7,1.5,1.5v18c0,.8-.7,1.5-1.5,1.5H5Z"/>
    <path class="st2" d="M27,6c.6,0,1,.4,1,1v18c0,.6-.4,1-1,1H5c-.6,0-1-.4-1-1v-14c0-.6.4-1,1-1h9.8c1.1,0,2.2-.6,2.7-1.7l.9-1.8c.2-.3.5-.6.9-.6h7.8M27,5h-7.8c-.8,0-1.5.4-1.8,1.1l-.9,1.8c-.3.7-1,1.1-1.8,1.1H5c-1.1,0-2,.9-2,2v14c0,1.1.9,2,2,2h22c1.1,0,2-.9,2-2V7c0-1.1-.9-2-2-2h0Z"/>
  </g>
  <path class="st0" d="M21.7,31c-.3,0-.6,0-.8-.2l-2.6-1.5c-.4-.2-.2-.3,0-.3.4-.1.8-.3,1.2-.5,0,0,.1,0,.2,0l2,1.2c0,0,.2,0,.2,0l7.7-4.4c0,0,.1-.1.1-.2v-8.9c0,0,0-.2-.1-.2l-7.7-4.4c0,0-.2,0-.2,0l-7.7,4.4c0,0-.1.1-.1.2v8.9c0,0,0,.2.1.2l2.1,1.2c1.1.6,1.8-.1,1.8-.8v-8.8c0-.1,0-.2.2-.2,0,0,0,0,0,0h1c.1,0,.2,0,.2.2h0v8.8c.2,1.2-.7,2.2-1.8,2.4-.1,0-.3,0-.4,0-.6,0-1.2-.2-1.8-.5l-2-1.2c-.5-.3-.8-.8-.8-1.4v-8.9c0-.6.3-1.1.8-1.4l7.7-4.4c.5-.3,1.1-.3,1.6,0l7.7,4.4c.5.3.8.8.8,1.4v8.9c0,.6-.3,1.1-.8,1.4l-7.7,4.4c-.2.1-.5.2-.8.2Z"/>
  <path class="st0" d="M20.2,22c0-.1,0-.2.2-.2,0,0,0,0,0,0h1c.1,0,.2,0,.2.2.1,1,.6,1.5,2.6,1.5s2.3-.4,2.3-1.2-.2-.9-2.7-1.1c-2.1-.2-3.4-.7-3.4-2.4s1.3-2.5,3.5-2.5,3.7.9,3.8,2.7c0,.1,0,.2-.2.2,0,0,0,0,0,0h-1c-.1,0-.2,0-.2-.2-.2-1.1-.8-1.4-2.4-1.4s-2,.6-2,1.1.2.7,2.6,1c2.4.3,3.5.8,3.5,2.4s-1.4,2.6-3.8,2.6c-3.4,0-4.1-1.5-4.1-2.8Z"/>
</svg>