<?xml version="1.0" encoding="UTF-8"?>
<svg id="_图层_1" data-name="图层_1" xmlns="http://www.w3.org/2000/svg" version="1.1" viewBox="0 0 32 32">
  <!-- Generator: Adobe Illustrator 29.0.0, SVG Export Plug-In . SVG Version: 2.1.0 Build 186)  -->
  <defs>
    <style>
      .st0 {
        fill: #1f9cf0;
      }

      .st1 {
        fill: #0065a9;
      }

      .st2 {
        fill: #a0a0a0;
      }

      .st3 {
        fill: #007acc;
      }

      .st4 {
        fill: #787878;
      }
    </style>
  </defs>
  <g>
    <path class="st2" d="M5,26.5c-.8,0-1.5-.7-1.5-1.5v-14c0-.8.7-1.5,1.5-1.5h9.8c1,0,1.8-.5,2.2-1.4l.9-1.8c.3-.5.8-.8,1.3-.8h7.8c.8,0,1.5.7,1.5,1.5v18c0,.8-.7,1.5-1.5,1.5H5Z"/>
    <path class="st4" d="M27,6c.6,0,1,.4,1,1v18c0,.6-.4,1-1,1H5c-.6,0-1-.4-1-1v-14c0-.6.4-1,1-1h9.8c1.1,0,2.2-.6,2.7-1.7l.9-1.8c.2-.3.5-.6.9-.6h7.8M27,5h-7.8c-.8,0-1.5.4-1.8,1.1l-.9,1.8c-.3.7-1,1.1-1.8,1.1H5c-1.1,0-2,.9-2,2v14c0,1.1.9,2,2,2h22c1.1,0,2-.9,2-2V7c0-1.1-.9-2-2-2h0Z"/>
  </g>
  <path class="st1" d="M30.3,12.3l-4.3-2.1c-.5-.2-1.1-.1-1.5.3l-14.2,12.9c-.4.3-.4.9,0,1.2,0,0,0,0,0,0l1.2,1.1c.3.3.8.3,1.1,0l17-12.9c.4-.3.9-.2,1.2.2.1.2.2.3.2.5h0c0-.6-.3-1-.7-1.2Z"/>
  <path class="st3" d="M30.3,28.8l-4.3,2.1c-.5.2-1.1.1-1.5-.3l-14.2-12.9c-.4-.3-.4-.9,0-1.2,0,0,0,0,0,0l1.2-1.1c.3-.3.8-.3,1.1,0l17,12.9c.4.3.9.2,1.2-.2.1-.2.2-.3.2-.5h0c0,.6-.3,1-.7,1.2Z"/>
  <path class="st0" d="M25.9,30.9c-.5.2-1.1.1-1.5-.3.3.3.8.3,1.1,0,.1-.1.2-.3.2-.5V11c0-.4-.3-.8-.8-.8-.2,0-.4,0-.5.2.4-.4,1-.5,1.5-.3l4.3,2.1c.5.2.7.7.7,1.2v14.1c0,.5-.3,1-.7,1.2l-4.3,2.1Z"/>
</svg>