<?xml version="1.0" encoding="UTF-8"?>
<svg id="_图层_1" xmlns="http://www.w3.org/2000/svg" version="1.1" viewBox="0 0 32 32">
  <!-- Generator: Adobe Illustrator 29.0.0, SVG Export Plug-In . SVG Version: 2.1.0 Build 186)  -->
  <defs>
    <style>
      .st0 {
        fill: #fff;
      }

      .st1 {
        fill: #dd2025;
      }

      .st2 {
        fill: #f4f4f4;
      }

      .st3 {
        fill: #d4d4d4;
      }
    </style>
  </defs>
  <g>
    <polygon class="st2" points="5.5 30.5 5.5 1.5 20.2 1.5 26.5 7.8 26.5 30.5 5.5 30.5"/>
    <path class="st3" d="M20,2l6,6v22H6V2h14M20.4,1H5v30h22V7.6l-.3-.3-6-6-.3-.3h0Z"/>
  </g>
  <rect class="st3" x="19" y="10" width="5" height="8"/>
  <rect class="st1" x="3" y="14" width="26" height="12"/>
  <g>
    <path class="st0" d="M6.5,16h2.5c1.8,0,3.1.6,3.1,2.5s-1.3,2.6-3,2.6h-1.1v2.9h-1.4v-8h0ZM9,19.9c1.2,0,1.8-.5,1.8-1.5s-.6-1.3-1.8-1.3h-1v2.8h1Z"/>
    <path class="st0" d="M13.6,16h2.1c2.5,0,3.9,1.3,3.9,4s-1.4,4-3.8,4h-2.2v-8ZM15.7,22.9c1.6,0,2.5-.9,2.5-2.9s-.9-2.8-2.5-2.8h-.6v5.7s.6,0,.6,0Z"/>
    <path class="st0" d="M21.3,16h4.8v1.2h-3.4v2.3h2.9v1.2h-2.9v3.3h-1.4v-8Z"/>
  </g>
  <rect class="st3" x="20" y="7" width="6" height="1"/>
  <rect class="st3" x="20" y="2" width="1" height="6"/>
  <rect class="st3" x="8" y="5" width="9" height="1"/>
  <rect class="st3" x="8" y="8" width="9" height="1"/>
  <rect class="st3" x="8" y="11" width="9" height="1"/>
  <rect class="st3" x="14" y="27" width="4" height="1"/>
</svg>