<?xml version="1.0" encoding="UTF-8"?>
<svg id="_图层_1" data-name="图层_1" xmlns="http://www.w3.org/2000/svg" version="1.1" viewBox="0 0 32 32">
  <!-- Generator: Adobe Illustrator 29.0.0, SVG Export Plug-In . SVG Version: 2.1.0 Build 186)  -->
  <defs>
    <style>
      .st0 {
        fill: #fff;
        stroke: #000;
        stroke-linejoin: round;
        stroke-width: 2px;
      }
    </style>
  </defs>
  <path class="st0" d="M4.1,8h23.9c1.1,0,2.1.8,2.1,1.9v12.2c0,1-.9,1.9-2.1,1.9H4.1c-1.1,0-2.1-.8-2.1-1.9v-12.2c0-1,.9-1.9,2.1-1.9Z"/>
  <polygon points="5.9 20.6 5.9 11.4 8.6 11.4 11.4 14.8 14.1 11.4 16.8 11.4 16.8 20.6 14.1 20.6 14.1 15.3 11.4 18.7 8.6 15.3 8.6 20.6 5.9 20.6"/>
  <polygon points="23 20.6 18.9 16.1 21.6 16.1 21.6 11.4 24.3 11.4 24.3 16.1 27 16.1 23 20.6"/>
</svg>