<?xml version="1.0" encoding="UTF-8"?>
<svg id="_图层_1" data-name="图层_1" xmlns="http://www.w3.org/2000/svg" version="1.1" viewBox="0 0 32 32">
  <!-- Generator: Adobe Illustrator 29.0.0, SVG Export Plug-In . SVG Version: 2.1.0 Build 186)  -->
  <defs>
    <style>
      .st0 {
        fill: gray;
      }
    </style>
  </defs>
  <path class="st0" d="M29.9,19.8l-10.1,10.1s0,0-.2,0l-13.8-3.7s0,0-.1-.1l-3.7-13.8c0,0,0-.1,0-.2L12.2,2.1s0,0,.2,0l13.8,3.7s0,0,.1.1l3.7,13.8c0,0,0,.1,0,.1ZM16.4,8.8l-13.6,3.7s0,0,0,0l9.9,9.9s0,0,0,0l3.7-13.5c0-.1-.1-.1-.1-.1Z"/>
</svg>