<?xml version="1.0" encoding="UTF-8"?>
<svg id="_图层_1" xmlns="http://www.w3.org/2000/svg" version="1.1" xmlns:xlink="http://www.w3.org/1999/xlink" viewBox="0 0 32 32">
  <!-- Generator: Adobe Illustrator 29.0.0, SVG Export Plug-In . SVG Version: 2.1.0 Build 186)  -->
  <defs>
    <style>
      .st0 {
        fill: url(#_未命名的渐变_52);
      }
    </style>
    <linearGradient id="_未命名的渐变_52" data-name="未命名的渐变 52" x1="16" y1="5.5" x2="16" y2="26.5" gradientUnits="userSpaceOnUse">
      <stop offset="0" stop-color="#f0f0f0"/>
      <stop offset="1" stop-color="#cfcfcf"/>
    </linearGradient>
  </defs>
  <g>
    <rect class="st0" x="2.5" y="5.5" width="27" height="21" rx="1.5" ry="1.5"/>
    <path d="M28,6c.6,0,1,.4,1,1v18c0,.6-.4,1-1,1H4c-.6,0-1-.4-1-1V7c0-.6.4-1,1-1h24M28,5H4c-1.1,0-2,.9-2,2v18c0,1.1.9,2,2,2h24c1.1,0,2-.9,2-2V7c0-1.1-.9-2-2-2h0Z"/>
  </g>
  <g>
    <path d="M4.3,22.1l1.6-.2,4.2-12.2h1.6l4.2,12.3,1.4.2v.9h-5.8v-.9l1.8-.2-1-3h-4.4l-1,2.9,1.7.3v.9h-4.4v-.9ZM8.3,17.9h3.7l-1.8-5.5-1.8,5.5Z"/>
    <path d="M23.7,21.7c-1,1-1.6,1.5-2.9,1.5s-2.7-.9-2.7-2.5.7-2.2,3.6-3.2c.5-.2,1.2-.4,1.9-.6v-.6c0-1.9-.5-2.4-1.8-2.4s-.5,0-.8,0l-.2,1.1c-.1,1-.6,1.4-1.3,1.4s-1-.3-1.1-.9c.2-1.6,1.8-2.6,4.2-2.6s3.3,1,3.3,3.6v4.4c0,.6.2.9.6.9s.5-.1.7-.4l.5.4c-.5.9-1.1,1.3-2.1,1.3s-1.7-.6-2-1.5ZM21.9,21.8c.4,0,.8-.1,1.7-.8v-3.2c-.6.2-1.1.3-1.4.5-1.3.5-1.7,1.3-1.7,2s.6,1.5,1.4,1.5Z"/>
  </g>
</svg>