<?xml version="1.0" encoding="UTF-8"?>
<svg id="_图层_1" data-name="图层_1" xmlns="http://www.w3.org/2000/svg" version="1.1" viewBox="0 0 32 32">
  <!-- Generator: Adobe Illustrator 29.0.0, SVG Export Plug-In . SVG Version: 2.1.0 Build 186)  -->
  <defs>
    <style>
      .st0 {
        fill: #fff;
      }

      .st1 {
        fill: #e44f26;
      }
    </style>
  </defs>
  <path class="st1" d="M6,2h24v28H2V6c0-2.2,1.8-4,4-4Z"/>
  <g>
    <path class="st0" d="M4.5,19.4h1.5v8.3h-1.5v-8.3ZM9.2,22.7v1.5h-4.3v-1.5h4.3ZM8.1,19.4h1.5v8.3h-1.5v-8.3Z"/>
    <path class="st0" d="M16,19.4v1.5h-5.3v-1.5h5.3ZM12.6,19.4h1.5v8.3h-1.5v-8.3Z"/>
    <path class="st0" d="M17,19.4h1.4v8.3h-1.4v-8.3ZM18.5,19.4l1.1,5,1.1-5h.4l-.6,4.4-.5,2.4h-.9l-.5-2.4-.6-4.4h.4ZM20.8,19.4h1.4v8.3h-1.4v-8.3Z"/>
    <path class="st0" d="M24,19.4h1.5v8.3h-1.5v-8.3ZM28.5,26.2v1.5h-4.2v-1.5h4.2Z"/>
  </g>
</svg>