<?xml version="1.0" encoding="UTF-8"?>
<svg id="_图层_1" xmlns="http://www.w3.org/2000/svg" version="1.1" viewBox="0 0 32 32">
  <!-- Generator: Adobe Illustrator 29.0.0, SVG Export Plug-In . SVG Version: 2.1.0 Build 186)  -->
  <defs>
    <style>
      .st0 {
        fill: #9a9a9a;
      }

      .st1 {
        fill: #a6a6a6;
      }

      .st2 {
        fill: #dbdbdb;
      }

      .st3 {
        fill: #ebebeb;
      }

      .st4 {
        fill: #ccc;
      }

      .st5 {
        fill: #b3b3b3;
      }
    </style>
  </defs>
  <polygon class="st0" points="32 3 4 3 4 25 32 25 32 3 32 3"/>
  <rect class="st4" x="5" y="4" width="26" height="20"/>
  <rect class="st0" x="19" y="3" width="1" height="21"/>
  <polygon class="st1" points="30 5 2 5 2 27 30 27 30 5 30 5"/>
  <rect class="st2" x="3" y="6" width="26" height="20"/>
  <rect class="st1" x="17" y="5" width="1" height="21"/>
  <polygon class="st5" points="28 7 0 7 0 29 28 29 28 7 28 7"/>
  <rect class="st3" x="1" y="8" width="26" height="20"/>
  <rect class="st5" x="15" y="7" width="1" height="21"/>
  <g>
    <path d="M1,25.1l1.8-.3,4.6-13.4h1.8l4.6,13.5,1.5.2v1h-6.4v-1l1.9-.2-1.1-3.3h-4.8l-1.1,3.2,1.9.3v1H1v-1ZM5.4,20.4h4l-2-6.1-2,6.1Z"/>
    <path d="M22.4,24.7c-1.1,1.1-1.8,1.7-3.2,1.7s-2.9-1-2.9-2.8.8-2.5,3.9-3.5c.6-.2,1.3-.4,2.1-.6v-.6c0-2-.5-2.6-1.9-2.6s-.6,0-.9,0l-.3,1.2c-.1,1.1-.7,1.5-1.4,1.5s-1.1-.4-1.2-1c.3-1.8,2-2.9,4.6-2.9s3.7,1.1,3.7,4v4.8c0,.7.2,1,.6,1s.5-.2.8-.5l.5.4c-.5,1-1.2,1.4-2.3,1.4s-1.9-.6-2.2-1.6ZM20.4,24.8c.5,0,.9-.2,1.9-.9v-3.5c-.6.2-1.2.4-1.6.5-1.5.6-1.9,1.4-1.9,2.2s.7,1.6,1.6,1.6Z"/>
  </g>
</svg>