<?xml version="1.0" encoding="UTF-8"?>
<svg id="_图层_1" data-name="图层_1" xmlns="http://www.w3.org/2000/svg" version="1.1" viewBox="0 0 32 32">
  <!-- Generator: Adobe Illustrator 29.0.0, SVG Export Plug-In . SVG Version: 2.1.0 Build 186)  -->
  <defs>
    <style>
      .st0 {
        fill: #639;
      }

      .st1 {
        fill: #fff;
      }
    </style>
  </defs>
  <path class="st0" d="M2,2h24c2.2,0,4,1.8,4,4v20c0,2.2-1.8,4-4,4H6c-2.2,0-4-1.8-4-4V2h0Z"/>
  <path class="st1" d="M9.1,24.9v-4.7c0-1.9,1.2-2.9,3-2.9,1.8,0,2.9,1.1,2.9,3.1h-2.1c0-.8-.3-1.3-.8-1.3-.7,0-.9.5-.9,1.4v4.1c0,.9.3,1.3.9,1.3.6,0,.9-.6.8-1.4h2.1c.1,2-1.2,3.2-3,3.2-1.8,0-2.9-1-2.9-2.9ZM15.7,24.5h1.9c0,.9.3,1.5.9,1.5s.8-.4.8-1.2-.3-1.1-1.1-1.5l-.7-.3c-1.3-.6-1.8-1.4-1.8-2.9s1.1-2.9,2.8-2.9,2.7,1.2,2.7,3.2h-1.9c0-.8-.2-1.4-.8-1.4s-.8.3-.8,1,.3,1,.9,1.3l.7.3c1.4.7,2,1.5,2,3.2s-1.1,3-2.9,3-2.8-1.2-2.8-3.2ZM22,24.5h2c0,.9.3,1.5.9,1.5s.8-.4.8-1.2-.3-1.1-1.1-1.5l-.7-.3c-1.3-.6-1.8-1.4-1.8-2.9s1-2.9,2.8-2.9,2.6,1.2,2.7,3.2h-1.9c0-.8-.2-1.4-.8-1.4s-.8.3-.8,1,.2,1,.9,1.3l.7.3c1.4.7,2,1.5,2,3.2s-1.1,3-2.9,3-2.8-1.2-2.8-3.2Z"/>
</svg>