<?xml version="1.0" encoding="UTF-8"?>
<svg id="_图层_1" data-name="图层_1" xmlns="http://www.w3.org/2000/svg" version="1.1" xmlns:xlink="http://www.w3.org/1999/xlink" viewBox="0 0 32 32">
  <!-- Generator: Adobe Illustrator 29.0.0, SVG Export Plug-In . SVG Version: 2.1.0 Build 186)  -->
  <defs>
    <style>
      .st0 {
        fill: url(#_未命名的渐变_191);
      }

      .st1 {
        fill: url(#_未命名的渐变_12);
      }

      .st2 {
        fill: url(#_未命名的渐变_19);
      }

      .st3 {
        fill: url(#_未命名的渐变_121);
      }

      .st4 {
        fill: url(#_未命名的渐变_16);
      }

      .st5 {
        fill: url(#_未命名的渐变_21);
      }

      .st6 {
        fill: #b7b7b7;
      }

      .st7 {
        fill: url(#_未命名的渐变_161);
      }

      .st8 {
        fill: #f3f3f3;
      }
    </style>
    <linearGradient id="_未命名的渐变_19" data-name="未命名的渐变 19" x1="-235" y1="264.3" x2="-234.2" y2="269" gradientTransform="translate(-915.9 1022.8) rotate(-180) scale(4 3.8)" gradientUnits="userSpaceOnUse">
      <stop offset="0" stop-color="#cfd0d1"/>
      <stop offset="1" stop-color="#dbdbdb"/>
    </linearGradient>
    <linearGradient id="_未命名的渐变_12" data-name="未命名的渐变 12" x1="-685.7" y1="-1595.3" x2="-676.9" y2="-1589.3" gradientTransform="translate(145.9 -326.6) scale(.2 -.2)" gradientUnits="userSpaceOnUse">
      <stop offset="0" stop-color="#dbdbdb"/>
      <stop offset="1" stop-color="#f3f3f3"/>
    </linearGradient>
    <linearGradient id="_未命名的渐变_121" data-name="未命名的渐变 12" x1="-1727.8" y1="-1597.6" x2="-1721.5" y2="-1588.6" gradientTransform="translate(-332.5 -326.7) rotate(-180) scale(.2)" xlink:href="#_未命名的渐变_12"/>
    <linearGradient id="_未命名的渐变_16" data-name="未命名的渐变 16" x1="-1729.4" y1="1255.6" x2="-1720.6" y2="1261.6" gradientTransform="translate(-332.4 -235.4) rotate(-180) scale(.2 -.2)" gradientUnits="userSpaceOnUse">
      <stop offset="0" stop-color="#cfd0d1"/>
      <stop offset="1" stop-color="#b7b7b7"/>
    </linearGradient>
    <linearGradient id="_未命名的渐变_161" data-name="未命名的渐变 16" x1="-683.4" y1="1257.9" x2="-674.7" y2="1263.9" gradientTransform="translate(145.9 -235.6) scale(.2)" xlink:href="#_未命名的渐变_16"/>
    <linearGradient id="_未命名的渐变_191" data-name="未命名的渐变 19" x1="-174.7" y1="267.9" x2="-174" y2="272.6" gradientTransform="translate(596.7 1083) scale(3.4 -4)" xlink:href="#_未命名的渐变_19"/>
    <linearGradient id="_未命名的渐变_21" data-name="未命名的渐变 21" x1="-178.6" y1="266.6" x2="-175.4" y2="266.6" gradientTransform="translate(681.3 1022.9) scale(3.8 -3.8)" gradientUnits="userSpaceOnUse">
      <stop offset="0" stop-color="#f4f5f7"/>
      <stop offset="1" stop-color="#e9eaeb"/>
    </linearGradient>
  </defs>
  <g>
    <rect class="st2" x="27.1" y="5.9" width="2.9" height="18"/>
    <rect class="st8" x="4.5" y="2.6" width="21.5" height="1.7"/>
    <path class="st1" d="M3.9,6.7l-1.9-.6v-1.5c0-1.3,1.2-2.1,2.1-2.1h.4s.7,2.7.7,2.7l-1.3,1.5Z"/>
    <path class="st3" d="M27.2,7.9l2.8-1.8v-1.6c0-.7-.7-1.9-2.1-2h-1.9s0,3.9,0,3.9l1.3,1.5Z"/>
    <path class="st4" d="M26.8,23.3l3.2.6v3.5c0,.7-.7,1.9-2.1,2h-1.7l-.7-4.7,1.3-1.5Z"/>
    <path class="st7" d="M5.2,24.2l-3.2-.3v3.5c0,1.3,1.2,2.1,2.1,2.1h1.8l1.5-3.7-2.2-1.6Z"/>
    <rect class="st6" x="5.9" y="24.4" width="20.6" height="5"/>
    <rect class="st0" x="2" y="5.9" width="2.5" height="18.8"/>
    <rect class="st5" x="4.1" y="3.9" width="23.8" height="23.2" rx="1.9" ry="1.9"/>
  </g>
  <g>
    <path d="M10.1,22.9l.7,1.9h1l-2.4-6.7h-1l-2.5,6.7h.9l.7-1.9h2.7ZM7.7,22.1l1.1-2.9h0l1,2.9h-2.1Z"/>
    <path d="M17.6,21h-3.5v-2.8h-.9v6.7h.9v-3.1h3.5v3.1h.9v-6.7h-.9v2.8Z"/>
    <path d="M21.7,22.5l1.1-1,2.3,3.3h1.2l-2.9-4,2.8-2.7h-1.2l-3.2,3.2v-3.2h-.9v6.7h.9v-2.3Z"/>
  </g>
</svg>