<?xml version="1.0" encoding="UTF-8"?>
<svg id="_图层_1" data-name="图层_1" xmlns="http://www.w3.org/2000/svg" version="1.1" viewBox="0 0 32 32">
  <!-- Generator: Adobe Illustrator 29.0.0, SVG Export Plug-In . SVG Version: 2.1.0 Build 186)  -->
  <defs>
    <style>
      .st0 {
        fill: #f5de19;
      }

      .st1 {
        fill: #99b8c4;
      }
    </style>
  </defs>
  <rect class="st0" x="2" y="2" width="28" height="28"/>
  <path d="M20.8,23.9c.5,1,1.5,1.6,2.6,1.6,1.1,0,1.8-.5,1.8-1.3s-.7-1.2-1.9-1.7l-.7-.3c-1.9-.8-3.2-1.8-3.2-4s1.5-3.5,3.9-3.5c1.6-.1,3,.7,3.7,2.1l-2.1,1.3c-.3-.7-.9-1.1-1.7-1.1-.6,0-1.2.4-1.3,1,0,0,0,0,0,.1,0,.8.5,1.1,1.6,1.6l.7.3c2.2,1,3.5,1.9,3.5,4.1s-1.9,3.7-4.4,3.7c-2,.1-3.9-.9-4.8-2.7l2.1-1.2ZM11.5,24.1c.4.7.8,1.4,1.7,1.4s1.4-.3,1.4-1.7v-8.9h2.6v9c0,2.7-1.6,4-3.9,4-1.7,0-3.3-.9-3.9-2.4l2.1-1.3Z"/>
  <path class="st1" d="M9,9.4l.4-.4c1.7,0,1.7,0,1.8-.2l.5-1.1h0c0-.1,0-.2,0-.2,0,0,0-.2-1.1-1.2v-.5c1.2-1.2,1.2-1.2,1.1-1.4l-.5-1.1c0-.2-.1-.2-1.8-.2l-.4-.4c0-.6,0-1.1,0-1.7h0c0-.1-1.2-.6-1.2-.6-.2,0-.2-.1-1.4,1.1h-.5c-1.2-1.3-1.2-1.2-1.4-1.2l-1.1.5c-.2,0-.2.1-.2,1.8l-.4.4c-1.7,0-1.7,0-1.8.2l-.5,1.1h0c0,.1,0,.2,0,.2,0,0,0,.2,1.1,1.2v.5c-1.2,1.2-1.2,1.2-1.1,1.4l.5,1.1c0,.2.1.2,1.8.2l.4.4c0,.6,0,1.1,0,1.7h0c0,.1,1.2.6,1.2.6.2,0,.2.1,1.4-1.1h.5c1.2,1.3,1.2,1.2,1.4,1.2l1.1-.5c.2,0,.2,0,.2-1.8ZM4.1,6.8c-.4-1,.1-2.2,1.2-2.6,1-.4,2.2.1,2.6,1.2.4,1-.1,2.2-1.1,2.6-1.1.4-2.2-.1-2.7-1.1Z"/>
</svg>