<?xml version="1.0" encoding="UTF-8"?>
<svg id="_图层_1" xmlns="http://www.w3.org/2000/svg" version="1.1" viewBox="0 0 32 32">
  <!-- Generator: Adobe Illustrator 29.0.0, SVG Export Plug-In . SVG Version: 2.1.0 Build 186)  -->
  <defs>
    <style>
      .st0 {
        fill: #18bcf2;
      }

      .st1 {
        fill: #f2f4f9;
      }
    </style>
  </defs>
  <path class="st0" d="M30,27.9c0,1-.8,1.8-1.8,1.8H3.8c-1,0-1.8-.8-1.8-1.8v-10.5c0-1,.6-2.3,1.2-3L14.8,2.9c.7-.7,1.8-.7,2.5,0l11.5,11.5c.7.7,1.2,2,1.2,3v10.5Z"/>
  <path class="st1" d="M20.7,11.5h-9.3c-.4,0-.7.3-.7.7v17.4h1.4V12.9h7.9v1.4h-5.8c-.4,0-.7.3-.7.7v2.8c0,.4.3.7.7.7h5.8v1.4h-5.8c-.4,0-.7.3-.7.7v2.8c0,.4.3.7.7.7h5.8v1.4h-5.8c-.4,0-.7.3-.7.7s.3.7.7.7h6.5c.4,0,.7-.3.7-.7v-2.8c0-.4-.3-.7-.7-.7h-5.8v-1.4h5.8c.4,0,.7-.3.7-.7v-2.8c0-.4-.3-.7-.7-.7h-5.8v-1.4h5.8c.4,0,.7-.3.7-.7v-2.8c0-.4-.3-.7-.7-.7Z"/>
</svg>