<?xml version="1.0" encoding="UTF-8"?>
<svg id="_图层_1" xmlns="http://www.w3.org/2000/svg" version="1.1" viewBox="0 0 32 32">
  <!-- Generator: Adobe Illustrator 29.0.0, SVG Export Plug-In . SVG Version: 2.1.0 Build 186)  -->
  <defs>
    <style>
      .st0 {
        fill: #fff;
      }

      .st1 {
        stroke: #999;
      }

      .st1, .st2 {
        fill: none;
        stroke-miterlimit: 10;
      }

      .st3 {
        fill: #2349a8;
      }

      .st4 {
        fill: #999;
      }

      .st5 {
        fill: #f4f4f4;
      }

      .st6 {
        fill: gray;
      }

      .st7 {
        fill: #d4d4d4;
      }

      .st2 {
        stroke: #666;
        stroke-width: .9px;
      }
    </style>
  </defs>
  <g>
    <g>
      <polygon class="st5" points="4.5 29.5 4.5 2.5 21.2 2.5 27.5 8.8 27.5 29.5 4.5 29.5"/>
      <path class="st7" d="M21,3l6,6v20H5V3h16M21.4,2H4v28h24V8.6l-.3-.3-6-6-.3-.3h0Z"/>
    </g>
    <rect class="st7" x="21" y="8" width="6" height="1"/>
    <rect class="st7" x="21" y="3" width="1" height="6"/>
  </g>
  <path class="st2" d="M8,13c3.3-3.3,8.7-3.3,12,0s3.3,8.7,0,12"/>
  <line class="st1" x1="15" y1="8" x2="25" y2="18"/>
  <rect class="st6" x="7" y="12" width="2" height="2"/>
  <rect class="st0" x="7.5" y="12.5" width="1" height="1"/>
  <rect class="st6" x="19" y="12" width="2" height="2"/>
  <rect class="st0" x="19.5" y="12.5" width="1" height="1"/>
  <rect class="st6" x="19" y="24" width="2" height="2"/>
  <rect class="st0" x="19.5" y="24.5" width="1" height="1"/>
  <rect class="st4" x="14" y="7" width="2" height="2"/>
  <rect class="st4" x="24" y="17" width="2" height="2"/>
  <rect class="st3" x="2" y="18" width="19" height="12"/>
  <g>
    <path class="st0" d="M4.6,20.2h1.6l1.4,3.8c.2.5.3,1,.5,1.5h0c.2-.5.3-1,.5-1.5l1.4-3.8h1.6v7.8h-1.3v-3.6c0-.7.1-1.8.2-2.5h0l-.6,1.8-1.3,3.5h-.8l-1.3-3.5-.6-1.8h0c0,.7.2,1.8.2,2.5v3.6h-1.3v-7.8Z"/>
    <path class="st0" d="M13.5,20.2h2.5c1.7,0,3,.6,3,2.4s-1.3,2.5-3,2.5h-1.1v2.9h-1.4v-7.8ZM15.9,24c1.2,0,1.7-.5,1.7-1.4s-.6-1.3-1.8-1.3h-1v2.7h1Z"/>
  </g>
</svg>