<?xml version="1.0" encoding="UTF-8"?>
<svg id="_图层_1" data-name="图层_1" xmlns="http://www.w3.org/2000/svg" version="1.1" viewBox="0 0 32 32">
  <!-- Generator: Adobe Illustrator 29.0.0, SVG Export Plug-In . SVG Version: 2.1.0 Build 186)  -->
  <defs>
    <style>
      .st0 {
        fill: #99b8c4;
      }
    </style>
  </defs>
  <path class="st0" d="M25.9,16l.4-1.1,3.3-2.5-1.5-3.7-4.1.6-1.1-.4-.4-1.1.6-4.1-3.7-1.5-2.5,3.3-1.1.4-1.1-.4-2.5-3.3-3.7,1.5.6,4.1-.4,1.1-1.1.4-4.1-.6-1.5,3.7,3.3,2.5.4,1.1-.4,1.1-3.3,2.5,1.5,3.7,4.1-.6,1.1.4.4,1.1-.6,4.1,3.7,1.5,2.5-3.3,1.1-.4,1.1.4,2.5,3.3,3.7-1.5-.6-4.1.4-1.1,1.1-.4,4.1.6,1.5-3.7-3.3-2.5-.4-1.1ZM17.5,19.7c-2,.8-4.4-.1-5.2-2.2-.8-2,.1-4.4,2.2-5.2,2-.8,4.4.1,5.2,2.2.8,2-.1,4.4-2.2,5.2Z"/>
</svg>