<?xml version="1.0" encoding="UTF-8"?>
<svg id="_图层_1" data-name="图层_1" xmlns="http://www.w3.org/2000/svg" version="1.1" viewBox="0 0 32 32">
  <!-- Generator: Adobe Illustrator 29.0.0, SVG Export Plug-In . SVG Version: 2.1.0 Build 186)  -->
  <defs>
    <style>
      .st0 {
        fill: #6b6b6b;
      }
    </style>
  </defs>
  <path class="st0" d="M11.3,13.1c-.1-1.6-.2-2.8-2.3-2.8h-1.1v8.4h2.1v.6h-3.1s-3.1,0-3.1,0v-.6h2.1v-8.4h-1.2c-2,0-2.2,1.2-2.3,2.8h-.6l.3-3.4h9.4l.3,3.4h-.6,0Z"/>
  <path class="st0" d="M19.3,22.5h-8.9v-.6h1.5v-8.5h-1.5v-.6h8.6l.4,3.4h-.6c-.2-1.8-.7-2.8-2.9-2.8h-2.2v3.7h.8c1.4,0,1.5-.6,1.5-1.7h.6v3.9h-.6c0-1.1-.1-1.7-1.5-1.7h-.8v4.1h2.2c2.5,0,3-1.1,3.3-3.2h.6l-.6,3.8Z"/>
  <path class="st0" d="M27.7,19.2c-.5,0-2,0-2.4,0v-.6h1.2l-2.6-3.6-2.5,3.4c.4.1.9.2,1.3.2v.6c-.4,0-1.6,0-2,0s-1.5,0-1.9,0v-.6h.4c.3,0,.6,0,.8,0,.5,0,.5,0,.7-.3l2.9-3.8-3.2-4.4h-1.4v-.6c.4,0,1.8,0,2.3,0s1.9,0,2.4,0v.6h-1.2l2.1,3,2.1-2.8c-.4-.1-.9-.2-1.3-.2v-.6c.4,0,1.6,0,2,0s1.5,0,1.9,0v.6h-.4c-.3,0-.6,0-.8,0-.5,0-.5,0-.7.3l-2.4,3.2,3.6,5h1.4v.6c-.4,0-1.8,0-2.3,0Z"/>
</svg>