<?xml version="1.0" encoding="UTF-8"?>
<svg id="_图层_1" data-name="图层_1" xmlns="http://www.w3.org/2000/svg" version="1.1" viewBox="0 0 32 32">
  <!-- Generator: Adobe Illustrator 29.0.0, SVG Export Plug-In . SVG Version: 2.1.0 Build 186)  -->
  <defs>
    <style>
      .st0 {
        fill: #0c344b;
        fill-rule: evenodd;
      }

      .st1 {
        fill: #99b8c4;
      }
    </style>
  </defs>
  <path class="st0" d="M25.2,24.2l-12.5,3.7c-.3,0-.6,0-.7-.4,0,0,0-.2,0-.3l4.5-21.5c0-.2.3-.4.5-.3.1,0,.2.1.3.2l8.2,17.7c.1.3,0,.7-.3.8,0,0,0,0,0,0ZM27.3,23.3L17.8,2.9h0c-.2-.5-.7-.9-1.3-.9-.6,0-1.1.2-1.4.7L4.7,19.6c-.3.5-.3,1.2,0,1.7l5.1,7.9c.4.6,1.1.9,1.8.7l14.7-4.4c.8-.2,1.3-1.1,1.1-2,0,0,0-.2,0-.2h0Z"/>
  <path class="st1" d="M27,27.8l.4-.4c1.7,0,1.7,0,1.8-.2l.5-1.1h0c0-.1,0-.2,0-.2,0,0,0-.2-1.1-1.2v-.5c1.2-1.2,1.2-1.2,1.1-1.4l-.5-1.1c0-.2-.1-.2-1.8-.2l-.4-.4c0-.6,0-1.1,0-1.7h0c0-.1-1.2-.6-1.2-.6-.2,0-.2-.1-1.4,1.1h-.5c-1.2-1.3-1.2-1.2-1.4-1.2l-1.1.5c-.2,0-.2.1-.2,1.8l-.4.4c-1.7,0-1.7,0-1.8.2l-.5,1.1h0c0,.1,0,.2,0,.2,0,0,0,.2,1.1,1.2v.5c-1.2,1.2-1.2,1.2-1.1,1.4l.5,1.1c0,.2.1.2,1.8.2l.4.4c0,.6,0,1.1,0,1.7h0c0,.1,1.2.6,1.2.6.2,0,.2.1,1.4-1.1h.5c1.2,1.3,1.2,1.2,1.4,1.2l1.1-.5c.2,0,.2-.1.2-1.8ZM22.2,25.2c-.4-1,.1-2.2,1.2-2.6,1-.4,2.2.1,2.6,1.2.4,1-.1,2.2-1.1,2.6-1,.4-2.2-.1-2.6-1.1Z"/>
</svg>