<?xml version="1.0" encoding="UTF-8"?>
<svg id="_图层_1" data-name="图层_1" xmlns="http://www.w3.org/2000/svg" version="1.1" viewBox="0 0 32 32">
  <!-- Generator: Adobe Illustrator 29.0.0, SVG Export Plug-In . SVG Version: 2.1.0 Build 186)  -->
  <defs>
    <style>
      .st0 {
        fill: #fff;
      }

      .st1 {
        fill: #3178c6;
        fill-rule: evenodd;
      }

      .st2 {
        fill: #ededed;
      }

      .st3 {
        fill: #5c5c5c;
      }
    </style>
  </defs>
  <rect class="st0" x="7" y="11" width="22" height="18"/>
  <path class="st1" d="M3,2h25.9c.6,0,1.1.5,1.1,1.1v25.9c0,.6-.5,1.1-1.1,1.1H3.1c-.6,0-1.1-.5-1.1-1.1V3.1c0-.6.5-1.1,1-1.1ZM17.6,16.9v-2.3H7.6v2.3h3.6v10.2h2.8v-10.2s3.6,0,3.6,0ZM18.7,26.9c1,.5,2.3.7,3.6.7,3.3,0,5-1.4,5-3.7s-.9-2.9-3.3-3.8-2.4-1.2-2.4-1.9,1.1-1.3,2.1-1.3,2.1.3,3,.9v-2.6c-.8-.3-2-.5-3.1-.5-2.9,0-4.9,1.3-4.9,3.7s.9,2.7,2.9,3.6,2.7,1.5,2.7,2.1-.9,1.3-2.1,1.3-2.4-.4-3.5-1.3c0,0,0,2.8,0,2.8Z"/>
  <rect class="st2" x="4.6" y="1.5" width="2.7" height="6.7"/>
  <circle class="st2" cx="6" cy="10.8" r="4.4"/>
  <g>
    <path class="st3" d="M7,2v5.1l.6.3c1.5.6,2.4,2.1,2.4,3.7s-1.8,4-4,4-4-1.8-4-4,.9-3,2.4-3.7l.6-.3V2h2M8,1h-4v5.4c-1.8.8-3,2.5-3,4.6s2.2,5,5,5,5-2.2,5-5-1.2-3.8-3-4.6V1h0Z"/>
    <path class="st3" d="M8.5,1H3.5c-.3,0-.5.2-.5.5s.2.5.5.5h5c.3,0,.5-.2.5-.5s-.2-.5-.5-.5h0Z"/>
    <path class="st3" d="M9,11c0,1.7-1.3,3-3,3s-3-1.3-3-3h6Z"/>
  </g>
</svg>