<?xml version="1.0" encoding="UTF-8"?>
<svg id="_图层_1" data-name="图层_1" xmlns="http://www.w3.org/2000/svg" version="1.1" viewBox="0 0 32 32">
  <!-- Generator: Adobe Illustrator 29.0.0, SVG Export Plug-In . SVG Version: 2.1.0 Build 186)  -->
  <defs>
    <style>
      .st0 {
        fill: #f5de19;
      }
    </style>
  </defs>
  <path class="st0" d="M16,30c-7.7,0-14-6.3-14-14S8.3,2,16,2s14,6.3,14,14c0,7.7-6.3,14-14,14ZM16,3.2c-7.1,0-12.8,5.7-12.8,12.8s5.7,12.8,12.8,12.8,12.8-5.7,12.8-12.8h0c0-7.1-5.7-12.8-12.8-12.8Z"/>
  <rect class="st0" x="2.8" y="15.4" width="26.4" height="1.2"/>
  <path class="st0" d="M16.3,10.5c-4,0-8-.5-11.9-1.6l.3-1.1c.1,0,11.3,3.3,22.4,0l.3,1.1c-3.6,1.1-7.4,1.6-11.2,1.6Z"/>
  <path class="st0" d="M4.8,23.9l-.3-1.1c11.5-3.4,22.6-.1,23.1,0l-.3,1.1c-.1,0-11.3-3.3-22.4,0Z"/>
  <path class="st0" d="M11.5,28.8c-3.5-8.2-3.7-17.3-.7-25.7l1.1.5c-2.9,8.1-2.6,16.9.7,24.8l-1.1.5Z"/>
  <path class="st0" d="M20.4,28.8l-1.1-.5c3.3-7.9,3.6-16.7.7-24.8l1.1-.5c3,8.4,2.7,17.5-.7,25.7Z"/>
  <rect class="st0" x="15.4" y="2.8" width="1.2" height="26.9"/>
  <path d="M20.8,23.9c.5,1,1.5,1.6,2.6,1.6,1.1,0,1.8-.5,1.8-1.3s-.7-1.2-1.9-1.7l-.7-.3c-1.9-.8-3.2-1.8-3.2-4s1.5-3.5,3.9-3.5c1.6-.1,3,.7,3.7,2.1l-2.1,1.3c-.3-.7-.9-1.1-1.7-1.1-.6,0-1.2.4-1.3,1,0,0,0,0,0,.1,0,.8.5,1.1,1.6,1.6l.7.3c2.2,1,3.5,1.9,3.5,4.1s-1.9,3.7-4.4,3.7c-2,.1-3.9-.9-4.8-2.7l2.1-1.2ZM11.5,24.1c.4.7.8,1.4,1.7,1.4s1.4-.3,1.4-1.7v-8.9h2.6v9c0,2.7-1.6,4-3.9,4-1.7,0-3.3-.9-3.9-2.4l2.1-1.3Z"/>
</svg>