<?xml version="1.0" encoding="UTF-8"?>
<svg id="_图层_1" xmlns="http://www.w3.org/2000/svg" version="1.1" viewBox="0 0 32 32">
  <!-- Generator: Adobe Illustrator 29.0.0, SVG Export Plug-In . SVG Version: 2.1.0 Build 186)  -->
  <defs>
    <style>
      .st0 {
        fill: #fff;
      }

      .st1 {
        fill: #e44f26;
      }

      .st2 {
        fill: #99b8c4;
      }
    </style>
  </defs>
  <path class="st1" d="M6,2h24v28H2V6C2,3.8,3.8,2,6,2Z"/>
  <g>
    <path class="st0" d="M4.5,19.4h1.5v8.3h-1.5v-8.3ZM9.2,22.7v1.5h-4.3v-1.5h4.3ZM8.1,19.4h1.5v8.3h-1.5v-8.3Z"/>
    <path class="st0" d="M16,19.4v1.5h-5.3v-1.5h5.3ZM12.6,19.4h1.5v8.3h-1.5v-8.3Z"/>
    <path class="st0" d="M17,19.4h1.4v8.3h-1.4v-8.3ZM18.5,19.4l1.1,5,1.1-5h.4l-.6,4.4-.5,2.4h-.9l-.5-2.4-.6-4.4h.5ZM20.8,19.4h1.4v8.3h-1.4v-8.3Z"/>
    <path class="st0" d="M24,19.4h1.5v8.3h-1.5v-8.3ZM28.5,26.2v1.5h-4.2v-1.5h4.2Z"/>
  </g>
  <path class="st2" d="M29,9.4l.4-.4c1.7,0,1.7,0,1.8-.2l.5-1.1h0c0-.1,0-.2,0-.2,0,0,0-.2-1.1-1.2v-.5c1.2-1.2,1.2-1.2,1.1-1.4l-.5-1.1c0-.2-.1-.2-1.8-.2l-.4-.4c0-.6,0-1.1,0-1.7h0c0-.1-1.2-.6-1.2-.6-.2,0-.2-.1-1.4,1.1h-.5c-1.2-1.3-1.2-1.2-1.4-1.2l-1.1.5c-.2,0-.2.1-.2,1.8l-.4.4c-1.7,0-1.7,0-1.8.2l-.5,1.1h0c0,.1,0,.2,0,.2,0,0,0,.2,1.1,1.2v.5c-1.2,1.2-1.2,1.2-1.1,1.4l.5,1.1c0,.2.1.2,1.8.2l.4.4c0,.6,0,1.1,0,1.7h0c0,.1,1.2.6,1.2.6.2,0,.2.1,1.4-1.1h.5c1.2,1.3,1.2,1.2,1.4,1.2l1.1-.5c.2,0,.2,0,.2-1.8ZM24.1,6.8c-.4-1,.1-2.2,1.2-2.6,1-.4,2.2.1,2.6,1.2.4,1-.1,2.2-1.1,2.6-1.1.4-2.2-.1-2.7-1.1Z"/>
</svg>