<?xml version="1.0" encoding="UTF-8"?>
<svg id="_图层_1" xmlns="http://www.w3.org/2000/svg" version="1.1" viewBox="0 0 32 32">
  <!-- Generator: Adobe Illustrator 29.0.0, SVG Export Plug-In . SVG Version: 2.1.0 Build 186)  -->
  <defs>
    <style>
      .st0 {
        fill: #6e6e6e;
      }

      .st1 {
        fill: #606060;
      }

      .st2 {
        fill: #f5de19;
      }
    </style>
  </defs>
  <rect class="st2" x="2" y="2" width="28" height="28"/>
  <path d="M20.8,23.9c.5,1,1.5,1.6,2.6,1.6s1.8-.5,1.8-1.3-.7-1.2-1.9-1.7l-.7-.3c-1.9-.8-3.2-1.8-3.2-4s1.5-3.5,3.9-3.5c1.6-.1,3,.7,3.7,2.1l-2.1,1.3c-.3-.7-.9-1.1-1.7-1.1s-1.2.4-1.3,1h0c0,.9.5,1.2,1.6,1.7l.7.3c2.2,1,3.5,1.9,3.5,4.1s-1.9,3.7-4.4,3.7c-2,.1-3.9-.9-4.8-2.7l2.1-1.2s.2,0,.2,0ZM11.5,24.1c.4.7.8,1.4,1.7,1.4s1.4-.3,1.4-1.7v-8.9h2.6v9c0,2.7-1.6,4-3.9,4s-3.3-.9-3.9-2.4l2.1-1.3h0Z"/>
  <circle class="st1" cx="45" cy="13" r="2"/>
  <path class="st0" d="M11.5,6.7l.2-.5,1.7-1.2-.8-1.8-2,.3-.5-.2-.2-.5.3-2-1.8-.8-1.2,1.7-.5.2-.5-.2L5,0l-1.8.8.3,2-.2.5-.5.2-2-.3-.8,1.8,1.7,1.2.2.5-.2.5L0,8.4l.8,1.8,2-.3.5.2.2.5-.3,2,1.8.8,1.2-1.7.5-.2.5.2,1.2,1.7,1.8-.8-.3-2,.2-.5.5-.2,2,.3.8-1.8-1.7-1.2-.2-.5ZM7.3,8.6c-1,.4-2.2,0-2.6-1.1-.4-1,0-2.2,1.1-2.6,1-.4,2.2,0,2.6,1.1.4,1,0,2.2-1.1,2.6Z"/>
</svg>