<?xml version="1.0" encoding="UTF-8"?>
<svg id="_图层_1" xmlns="http://www.w3.org/2000/svg" version="1.1" viewBox="0 0 32 32">
  <!-- Generator: Adobe Illustrator 29.0.0, SVG Export Plug-In . SVG Version: 2.1.0 Build 186)  -->
  <defs>
    <style>
      .st0 {
        fill: #fff;
      }

      .st1 {
        fill: #bfbfbf;
      }

      .st2 {
        fill: #3178c6;
        fill-rule: evenodd;
      }
    </style>
  </defs>
  <rect class="st0" x="7" y="11" width="22" height="18"/>
  <path class="st2" d="M3,2h25.9c.6,0,1.1.5,1.1,1.1v25.9c0,.6-.5,1.1-1.1,1.1H3.1c-.6,0-1.1-.5-1.1-1.1V3.1c0-.6.5-1.1,1-1.1ZM17.6,16.9v-2.3H7.6v2.3h3.6v10.2h2.8v-10.2s3.6,0,3.6,0ZM18.7,26.9c1,.5,2.3.7,3.6.7,3.3,0,5-1.4,5-3.7s-.9-2.9-3.3-3.8-2.4-1.2-2.4-1.9,1.1-1.3,2.1-1.3,2.1.3,3,.9v-2.6c-.8-.3-2-.5-3.1-.5-2.9,0-4.9,1.3-4.9,3.7s.9,2.7,2.9,3.6,2.7,1.5,2.7,2.1-.9,1.3-2.1,1.3-2.4-.4-3.5-1.3c0,0,0,2.8,0,2.8Z"/>
  <path class="st1" d="M11.5,6.7l.2-.5,1.7-1.2-.8-1.8-2,.3-.5-.2-.2-.5.3-2L8.4,0l-1.2,1.7-.5.2-.5-.2-1.2-1.7-1.8.8.3,2-.2.5-.5.2-2-.3L0,5l1.7,1.2.2.5-.2.5-1.7,1.2.8,1.8,2-.3.5.2.2.5-.3,2,1.8.8,1.2-1.7.5-.2.5.2,1.2,1.7,1.8-.8-.3-2,.2-.5.5-.2,2,.3.8-1.8-1.7-1.2-.2-.5ZM7.3,8.6c-1,.4-2.2,0-2.6-1.1-.4-1,0-2.2,1.1-2.6,1-.4,2.2,0,2.6,1.1.4,1,0,2.2-1.1,2.6Z"/>
</svg>