<?xml version="1.0" encoding="UTF-8"?>
<svg id="_图层_1" xmlns="http://www.w3.org/2000/svg" version="1.1" viewBox="0 0 32 32">
  <!-- Generator: Adobe Illustrator 29.0.0, SVG Export Plug-In . SVG Version: 2.1.0 Build 186)  -->
  <defs>
    <style>
      .st0 {
        stroke: #000;
        stroke-width: 2px;
      }

      .st0, .st1 {
        fill: none;
        stroke-miterlimit: 10;
      }

      .st0, .st2, .st3 {
        display: none;
      }

      .st1 {
        stroke: #17733a;
        stroke-width: 2px;
      }

      .st2 {
        fill: #fff;
      }

      .st4 {
        fill: #17733a;
      }

      .st5 {
        fill: #e8ffa3;
      }
    </style>
  </defs>
  <circle class="st2" cx="16" cy="16" r="13"/>
  <path class="st3" d="M16,8.2c-4.5,0-5.6,4.2-5.6,7.8s1.1,7.8,5.6,7.8,5.6-4.2,5.6-7.8-1.1-7.8-5.6-7.8Z"/>
  <path class="st2" d="M18.4,16c0,1.6-.1,4.8-2.4,4.8s-2.4-3.3-2.4-4.8.1-4.8,2.4-4.8,2.4,3.3,2.4,4.8Z"/>
  <rect class="st3" x="11" y="15.1" width="10" height="1.8" transform="translate(-5.8 22.1) rotate(-60.6)"/>
  <circle class="st0" cx="16" cy="16" r="13"/>
  <circle class="st5" cx="16" cy="16" r="16"/>
  <circle class="st1" cx="16" cy="16" r="13"/>
  <path class="st4" d="M16,11.8l-3.7-2.7c-.8-.6-1.8.2-1.5,1.1l1.4,4.4-3.7,2.7c-.8.6-.4,1.8.6,1.8h4.6s1.4,4.4,1.4,4.4c.3.9,1.6.9,1.9,0l1.4-4.4h4.6c1,0,1.4-1.2.6-1.8l-3.7-2.7,1.4-4.4c.3-.9-.8-1.7-1.5-1.1l-3.7,2.7Z"/>
</svg>