<?xml version="1.0" encoding="UTF-8"?>
<svg id="_图层_1" data-name="图层_1" xmlns="http://www.w3.org/2000/svg" version="1.1" viewBox="0 0 32 32">
  <!-- Generator: Adobe Illustrator 29.0.0, SVG Export Plug-In . SVG Version: 2.1.0 Build 186)  -->
  <defs>
    <style>
      .st0 {
        fill: #fff;
      }

      .st1 {
        fill: #636363;
      }
    </style>
  </defs>
  <g>
    <path class="st0" d="M7.9,29.5c-1.3,0-2.4-1.1-2.4-2.4V4.9c0-1.3,1.1-2.4,2.4-2.4h12.3l6.3,6.3v18.3c0,1.3-1.1,2.4-2.4,2.4H7.9Z"/>
    <path class="st1" d="M20,3l6,6v18.1c0,1.1-.9,1.9-1.9,1.9H7.9c-1.1,0-1.9-.9-1.9-1.9V4.9c0-1.1.9-1.9,1.9-1.9h12.1M20.4,2H7.9c-1.6,0-2.9,1.3-2.9,2.9v22.2c0,1.6,1.3,2.9,2.9,2.9h16.2c1.6,0,2.9-1.3,2.9-2.9V8.6l-.3-.3-6-6-.3-.3h0Z"/>
  </g>
  <rect class="st1" x="9" y="12" width="7" height="1"/>
  <rect class="st1" x="9" y="16" width="13" height="1"/>
  <rect class="st1" x="9" y="20" width="9" height="1"/>
  <rect class="st1" x="9" y="24" width="11" height="1"/>
  <rect class="st1" x="20" y="3" width="1" height="6"/>
  <rect class="st1" x="22.5" y="5.5" width="1" height="6" transform="translate(14.5 31.5) rotate(-90)"/>
</svg>