<?xml version="1.0" encoding="UTF-8"?>
<svg id="_图层_1" data-name="图层_1" xmlns="http://www.w3.org/2000/svg" version="1.1" viewBox="0 0 32 32">
  <!-- Generator: Adobe Illustrator 29.0.0, SVG Export Plug-In . SVG Version: 2.1.0 Build 186)  -->
  <defs>
    <style>
      .st0 {
        fill: #fff;
      }

      .st1 {
        stroke: #999;
      }

      .st1, .st2 {
        fill: none;
        stroke-miterlimit: 10;
      }

      .st3 {
        fill: #fc9042;
      }

      .st2 {
        stroke: #666;
        stroke-width: .9px;
      }

      .st4 {
        fill: #999;
      }

      .st5 {
        fill: #f4f4f4;
      }

      .st6 {
        fill: gray;
      }

      .st7 {
        fill: #d4d4d4;
      }
    </style>
  </defs>
  <g>
    <g>
      <polygon class="st5" points="4.5 29.5 4.5 2.5 21.2 2.5 27.5 8.8 27.5 29.5 4.5 29.5"/>
      <path class="st7" d="M21,3l6,6v20H5V3h16M21.4,2H4v28h24V8.6l-.3-.3-6-6-.3-.3h0Z"/>
    </g>
    <rect class="st7" x="21" y="8" width="6" height="1"/>
    <rect class="st7" x="21" y="3" width="1" height="6"/>
  </g>
  <path class="st2" d="M7,11c3.3-3.3,8.7-3.3,12,0s3.3,8.7,0,12"/>
  <line class="st1" x1="14" y1="6" x2="24" y2="16"/>
  <rect class="st6" x="6" y="10" width="2" height="2"/>
  <rect class="st0" x="6.5" y="10.5" width="1" height="1"/>
  <rect class="st6" x="18" y="10" width="2" height="2"/>
  <rect class="st0" x="18.5" y="10.5" width="1" height="1"/>
  <rect class="st6" x="18" y="22" width="2" height="2"/>
  <rect class="st0" x="18.5" y="22.5" width="1" height="1"/>
  <rect class="st4" x="13" y="5" width="2" height="2"/>
  <rect class="st4" x="23" y="15" width="2" height="2"/>
  <rect class="st3" x="3" y="16" width="26" height="12"/>
  <g>
    <path d="M7,18.1h4.7v1.2h-3.3v2h2.8v1.2h-2.8v2.3h3.5v1.2h-4.8v-7.8Z"/>
    <path d="M13.5,18.1h2.5c1.7,0,3,.6,3,2.4s-1.3,2.5-3,2.5h-1.1v2.9h-1.4v-7.8ZM15.9,21.9c1.2,0,1.7-.5,1.7-1.4s-.6-1.3-1.8-1.3h-1v2.7h1Z"/>
    <path d="M19.8,24.9l.8-.9c.6.5,1.3.9,2,.9s1.4-.4,1.4-1-.5-.9-1.2-1.2l-1.1-.5c-.8-.3-1.6-.9-1.6-2.1s1.1-2.2,2.6-2.2,1.8.4,2.4,1l-.7.9c-.5-.4-1-.7-1.7-.7s-1.2.3-1.2.9.6.8,1.2,1.1l1.1.4c.9.4,1.6,1,1.6,2.1s-1.1,2.3-2.8,2.3-2.1-.4-2.8-1.2Z"/>
  </g>
</svg>