<?xml version="1.0" encoding="UTF-8"?>
<svg id="_图层_1" data-name="图层_1" xmlns="http://www.w3.org/2000/svg" version="1.1" viewBox="0 0 32 32">
  <!-- Generator: Adobe Illustrator 29.0.0, SVG Export Plug-In . SVG Version: 2.1.0 Build 186)  -->
  <defs>
    <style>
      .st0 {
        fill: #ad3827;
      }
    </style>
  </defs>
  <path class="st0" d="M20.1,12.7h-5.6l-1.1,2.7h-2.5l5.2-12.3h2.5l5,12.3h-2.6l-.9-2.7ZM19.1,10.3l-1.7-4.5-1.9,4.5h3.6Z"/>
  <path d="M30,28.8v-2.6h-6.4v-9.4h-2.6v12h9ZM14.1,26.1l2.8-5.8v8.5h2.5v-12h-3.4l-3,5.5-2.9-5.5h-3.3v12.1h2.6v-8.3l2.7,5.6h2ZM2,3.1h3.5l3,4.8,3.1-4.8h3.3l-5,7.5v4.8h-3.1v-4.8L2,3.1Z"/>
</svg>