<?xml version="1.0" encoding="UTF-8"?>
<svg id="_图层_1" xmlns="http://www.w3.org/2000/svg" version="1.1" viewBox="0 0 32 32">
  <!-- Generator: Adobe Illustrator 29.0.0, SVG Export Plug-In . SVG Version: 2.1.0 Build 186)  -->
  <defs>
    <style>
      .st0 {
        fill: #505050;
      }

      .st1 {
        fill: #8c8c8c;
      }
    </style>
  </defs>
  <g>
    <path class="st1" d="M6,26.5c-.8,0-1.5-.7-1.5-1.5v-14c0-.8.7-1.5,1.5-1.5h9.8c1,0,1.8-.5,2.2-1.4l.9-1.8c.3-.5.8-.8,1.3-.8h7.8c.8,0,1.5.7,1.5,1.5v18c0,.8-.7,1.5-1.5,1.5H6Z"/>
    <path class="st0" d="M28,6c.6,0,1,.4,1,1v18c0,.6-.4,1-1,1H6c-.6,0-1-.4-1-1v-14c0-.6.4-1,1-1h9.8c1.1,0,2.2-.6,2.7-1.7l.9-1.8c.2-.3.5-.6.9-.6h7.8M28,5h-7.8c-.8,0-1.5.4-1.8,1.1l-.9,1.8c-.3.7-1,1.1-1.8,1.1H6c-1.1,0-2,.9-2,2v14c0,1.1.9,2,2,2h22c1.1,0,2-.9,2-2V7c0-1.1-.9-2-2-2h0Z"/>
  </g>
  <g>
    <path class="st1" d="M5.7,26.5c-.7,0-1.4-.5-1.5-1.3L1.9,11.2c0-.4,0-.9.3-1.2.3-.3.7-.5,1.1-.5h21.9c.7,0,1.4.5,1.5,1.3l2.3,14c0,.4,0,.9-.3,1.2-.3.3-.7.5-1.1.5H5.7Z"/>
    <path class="st0" d="M25.3,10c.5,0,.9.4,1,.8l2.3,14c0,.3,0,.6-.2.8-.2.2-.5.4-.8.4H5.7c-.5,0-.9-.4-1-.8l-2.3-14c0-.3,0-.6.2-.8s.5-.4.8-.4h21.9M25.3,9H3.4c-1.2,0-2.2,1.1-2,2.3l2.3,14c.2,1,1,1.7,2,1.7h21.9c1.2,0,2.2-1.1,2-2.3l-2.3-14c-.2-1-1-1.7-2-1.7h0Z"/>
  </g>
</svg>