<?xml version="1.0" encoding="UTF-8"?>
<svg id="_图层_1" xmlns="http://www.w3.org/2000/svg" version="1.1" viewBox="0 0 32 32">
  <!-- Generator: Adobe Illustrator 29.0.0, SVG Export Plug-In . SVG Version: 2.1.0 Build 186)  -->
  <defs>
    <style>
      .st0 {
        fill: #505050;
      }

      .st1 {
        fill: #8c8c8c;
      }
    </style>
  </defs>
  <path class="st1" d="M5,27.5c-1.4,0-2.5-1.1-2.5-2.5v-14c0-1.4,1.1-2.5,2.5-2.5h9.8c.6,0,1.1-.3,1.3-.8l.9-1.8c.4-.9,1.3-1.4,2.2-1.4h7.8c1.4,0,2.5,1.1,2.5,2.5v18c0,1.4-1.1,2.5-2.5,2.5H5Z"/>
  <path class="st0" d="M27,5c1.1,0,2,.9,2,2v18c0,1.1-.9,2-2,2H5c-1.1,0-2-.9-2-2v-14c0-1.1.9-2,2-2h9.8c.8,0,1.5-.4,1.8-1.1l.9-1.8c.3-.7,1-1.1,1.8-1.1h7.8M27,4h-7.8c-1.1,0-2.2.6-2.7,1.7l-.9,1.8c-.2.3-.5.6-.9.6H5c-1.7,0-3,1.3-3,3v14c0,1.7,1.3,3,3,3h22c1.7,0,3-1.3,3-3V7c0-1.7-1.3-3-3-3h0Z"/>
</svg>