<?xml version="1.0" encoding="UTF-8"?>
<svg id="_图层_1" xmlns="http://www.w3.org/2000/svg" version="1.1" viewBox="0 0 32 32">
  <!-- Generator: Adobe Illustrator 29.0.0, SVG Export Plug-In . SVG Version: 2.1.0 Build 186)  -->
  <defs>
    <style>
      .st0 {
        fill: #505050;
      }

      .st1 {
        fill: #8c8c8c;
      }
    </style>
  </defs>
  <g>
    <path class="st1" d="M6,27.5c-1.4,0-2.5-1.1-2.5-2.5v-14c0-1.4,1.1-2.5,2.5-2.5h9.8c.6,0,1.1-.3,1.3-.8l.9-1.8c.4-.9,1.3-1.4,2.2-1.4h7.8c1.4,0,2.5,1.1,2.5,2.5v18c0,1.4-1.1,2.5-2.5,2.5H6Z"/>
    <path class="st0" d="M28,5c1.1,0,2,.9,2,2v18c0,1.1-.9,2-2,2H6c-1.1,0-2-.9-2-2v-14c0-1.1.9-2,2-2h9.8c.8,0,1.5-.4,1.8-1.1l.9-1.8c.3-.7,1-1.1,1.8-1.1h7.8M28,4h-7.8c-1.1,0-2.2.6-2.7,1.7l-.9,1.8c-.2.3-.5.6-.9.6H6c-1.7,0-3,1.3-3,3v14c0,1.7,1.3,3,3,3h22c1.7,0,3-1.3,3-3V7c0-1.7-1.3-3-3-3h0Z"/>
  </g>
  <g>
    <path class="st1" d="M5.7,27.5c-1.2,0-2.3-.9-2.5-2.1L.9,11.4c-.1-.7,0-1.5.6-2,.5-.6,1.2-.9,1.9-.9h21.9c1.2,0,2.3.9,2.5,2.1l2.3,14c.1.7,0,1.5-.6,2-.5.6-1.2.9-1.9.9H5.7Z"/>
    <path class="st0" d="M25.3,9c1,0,1.8.7,2,1.7l2.3,14c.2,1.2-.7,2.3-2,2.3H5.7c-1,0-1.8-.7-2-1.7L1.4,11.3c-.2-1.2.7-2.3,2-2.3h21.9M25.3,8H3.4c-.9,0-1.7.4-2.3,1.1-.6.7-.8,1.6-.7,2.4l2.3,14c.2,1.5,1.5,2.5,3,2.5h21.9c.9,0,1.7-.4,2.3-1.1.6-.7.8-1.6.7-2.4l-2.3-14c-.2-1.5-1.5-2.5-3-2.5h0Z"/>
  </g>
</svg>